<svg id="Layer_1" data-name="Layer 1" xmlns="http://www.w3.org/2000/svg" viewBox="0 0 288 288"><title>Calender</title><path fill ="RGB(252,115,3)" d="M87.59,72.13C89.26,63.22,84,51.22,98.42,50.22c6.54-.45,13.91-2.56,19.77,2.46s2.3,12.62,3.94,19.14h45.49c1.86-6.46-2.32-14.51,4.47-19.57,5.89-4.39,12.94-1.92,19.44-2a10.83,10.83,0,0,1,7.67,3.59c1.77,2.22,2.16,5.74,2.59,8.77s.08,5.91.08,9.43c4.21,0,8-.06,11.78,0,13.19.24,23.45,9.76,23.53,22.9q.36,60.49,0,121c-.09,13.58-10.91,24-24.44,24q-67.75.21-135.5,0a24.1,24.1,0,0,1-24.41-24.05q-.39-60,0-120C52.93,82.47,63.53,72.6,77,72.15,80.46,72,83.93,72.13,87.59,72.13ZM70,116.57v94.94c0,9,2.13,11.14,11.22,11.14H208.69c9.22,0,11.42-2.23,11.42-11.57q0-44.49,0-89v-5.53Z"/><path fill ="RGB(252,115,3)" d="M145,130.32h1.5c14.7,0,15.46.76,13.32,15.53-.21,1.43-2.63,3.54-4.11,3.62-7.14.38-14.32.19-21.49.16-2.79,0-4.4-1.29-4.23-4.28,0-.17,0-.33,0-.5C130.29,127.86,127.36,130.57,145,130.32Z"/><path fill ="RGB(252,115,3)" d="M144.63,208.66a16.68,16.68,0,0,1-2,0c-4-.49-10.58.17-11.49-1.78-1.92-4.15-1.09-9.67-.91-14.61,0-1,2.17-2.72,3.38-2.76,7.49-.26,15-.35,22.49,0,1.36.07,3.48,2.42,3.72,4,.55,3.58.12,7.31.19,11,.05,3.05-1.64,4.15-4.38,4.17-3.67,0-7.33,0-11,0Z"/><path fill ="RGB(252,115,3)" d="M100.42,149.66H97.93c-12.91,0-15.33-3-12.39-15.94.31-1.36,2.6-3.16,4-3.23,7.14-.34,14.3-.15,21.46-.16,2.83,0,4.33,1.26,4.28,4.23-.06,3.49-.1,7,0,10.48s-1.7,4.71-4.93,4.63S103.75,149.65,100.42,149.66Z"/><path fill ="RGB(252,115,3)" d="M189.56,149.66c-3.33,0-6.66-.1-10,0-3.66.13-5-1.55-4.95-5.13.3-16.6-2.15-14,13.8-14.22,3.83-.06,7.66,0,11.48,0,3.4-.07,4.81,1.55,4.77,4.87C204.47,152.42,206.83,149.36,189.56,149.66Z"/><path fill ="RGB(252,115,3)" d="M100.46,208.65a21.44,21.44,0,0,1-3,0c-3.83-.48-10.22,0-11-1.78-1.76-4.29-1.06-9.69-.87-14.63,0-1,2.19-2.7,3.41-2.74,7.48-.26,15-.34,22.45,0,1.34.07,3.4,2.46,3.64,4,.54,3.58.13,7.3.18,11,0,3-1.6,4.14-4.37,4.14C107.45,208.64,104,208.65,100.46,208.65Z"/><path fill ="RGB(252,115,3)" d="M189.51,208.66c-3.32,0-6.66-.07-10,0s-5-1.16-4.89-4.66q.18-5,0-10c-.13-3.46,1.53-4.76,4.84-4.72q10.23.12,20.47,0c3.42,0,4.76,1.62,4.72,4.92C204.47,211.4,206.83,208.37,189.51,208.66Z"/><path fill ="RGB(252,115,3)" d="M144.52,179a23,23,0,0,1-2.49,0c-3.83-.46-10.29.08-11-1.64-1.71-4.33-1-9.7-.76-14.62,0-1,2.53-2.55,3.94-2.6,7.13-.27,14.27-.09,21.41-.14,2.85,0,4.39,1.14,4.35,4.11-.23,17.7,2.33,14.63-13.49,14.9Z"/><path fill ="RGB(252,115,3)" d="M99.94,179c-3.15,0-6.31-.17-9.45,0-4,.26-5.25-1.59-5.21-5.33.2-16.23-1.56-13.48,13.25-13.7,4-.06,8,.14,11.94,0,3.79-.19,4.93,1.61,4.88,5.1-.25,16.65,1.94,13.63-13.42,13.94Z"/><path fill ="RGB(252,115,3)" d="M189.87,160c3.48,0,7,.08,10.45,0,3-.07,4.07,1.4,4.35,4.19,1.47,14.43,1.15,14.83-13.11,14.83-4.31,0-8.66.32-12.91-.19-1.45-.17-2.66-2.41-4-3.73-.09-.08,0-.32,0-.48C174.91,156.62,172.15,160.44,189.87,160Z"/></svg>