<svg id="Layer_1" data-name="Layer 1" xmlns="http://www.w3.org/2000/svg" viewBox="0 0 288 288"><title>Download</title><path d="M161.32,113c18.47-8.91,36.15,4.92,31.67,25.4,9.79,3.24,17.28,9.17,20.37,19.5a27.49,27.49,0,0,1-25.72,35.72c-27.28.59-54.58.43-81.87,0-14.92-.21-26.55-10.5-29.76-24.9-3-13.41,3.52-26.9,16.15-34.25a8.85,8.85,0,0,0,4-5.48c2.39-16.14,11.54-28,25.58-31.49,15.6-3.93,28.31.94,38,13.7C160.11,111.74,160.57,112.17,161.32,113Zm-14.58,38.89c0-6.25,0-11.57,0-16.89,0-11.08,0-10.83-10.78-10.93-5.18,0-6.77,1.91-6.56,6.84.31,6.79.08,13.6.08,21-4.6,0-8.44-.21-12.24.1-1.72.14-4.12.91-4.79,2.16-.57,1.06.45,3.66,1.55,4.82,6.66,7,13.37,13.94,20.5,20.43,1.34,1.23,5.58,1.39,6.86.24,7.3-6.61,14.17-13.71,21-20.8,1-1.07,2.1-3.55,1.59-4.33a6.84,6.84,0,0,0-4.62-2.49C155.56,151.64,151.7,151.88,146.74,151.88Z"/></svg>