<svg id="Layer_1" data-name="Layer 1" xmlns="http://www.w3.org/2000/svg" viewBox="0 0 288 288"><title>Edit</title><path d="M138,225c-16,0-32,0-48,0C74.68,224.94,65,215.26,65,200q0-48.48,0-97c0-14.66,9.65-24.53,24.31-24.71,13.49-.17,27-.08,40.48,0,5.43,0,8.25,2.32,8.38,6.49.15,4.39-2.8,6.94-8.4,7-13,.06-26,0-39,0-9.07,0-12.52,3.37-12.53,12.28q0,47.75,0,95.47c0,8.42,3.81,12.21,12.24,12.22q47.75.06,95.47,0c8.87,0,12.24-3.52,12.26-12.57,0-12.83,0-25.66,0-38.49,0-5.82,2.22-8.73,6.51-8.86,4.53-.14,7,2.88,7,8.91,0,13.16.11,26.33,0,39.49-.14,15.22-9.93,24.76-25.28,24.79C170.27,225,154.11,225,138,225Z"/><path d="M198.14,62.66c1.32.13,2.66.15,4,.41,7.18,1.42,23.76,18.4,25.05,25.58a16.29,16.29,0,0,1-4.66,15.1q-29.25,29.35-58.64,58.58a10.87,10.87,0,0,1-5.13,2.71q-15.6,3.38-31.28,6.32c-6.33,1.19-9.89-2.49-8.67-8.88,1.94-10.12,3.88-20.24,6.15-30.29a14.61,14.61,0,0,1,3.64-6.79c18.83-19.05,37.71-38.07,56.88-56.79,3.24-3.15,7.92-4.82,11.93-7.17ZM133.69,156c12.79-1.27,24.18-3.27,31.84-14.11,2.65-3.75,6.48-6.66,9.78-9.95,6.69-6.68,13.38-13.35,19.41-19.35L177.65,95c-10.49,10.49-20.55,21.92-32.06,31.65C136.08,134.71,136.09,145.24,133.69,156ZM188.85,84,206,101.14c-.08.07.43-.36.9-.83,9.66-9.81,9.54-7.67.2-17-10-10-7.39-10.18-18,.26C188.77,83.94,188.54,84.39,188.85,84Z"/></svg>