<svg id="Layer_1" data-name="Layer 1" xmlns="http://www.w3.org/2000/svg" viewBox="0 0 288 288"><title>Notiffication</title><path d="M144.48,176c-12.48,0-25,0-37.46,0-5.93,0-9.32-2.41-10-6.92s2.06-7.83,7.82-9c3.37-.71,4.15-2.74,4.13-5.74-.06-7.5-.09-15,0-22.48a36,36,0,0,1,72,0q.14,11.24,0,22.47c0,3.31,1,5.2,4.64,5.79,5,.8,7.67,4.23,7.34,8.48-.35,4.47-3.73,7.36-9,7.39C170.79,176,157.64,176,144.48,176Z"/><path d="M131.25,180.24h27.46c.43,8.45-7.72,13.79-13.62,13.81C138.57,194.08,130.89,188.3,131.25,180.24Z"/></svg>