<svg id="Layer_1" data-name="Layer 1" xmlns="http://www.w3.org/2000/svg" viewBox="0 0 288 288"><title>Password</title><path d="M100,122.74c0-7.66.14-14.48,0-21.28-.35-14.49,6.32-25.18,18.6-31.85,19.07-10.36,38.64-10.52,57.59.45,11.76,6.81,18.26,17.16,17.87,31.26-.19,6.81,0,13.63,0,21.16,3,0,5.77.19,8.5,0,8-.65,14.75,3.93,14.83,11.8.13,12.77.59,25.83-1.71,38.28-5.9,31.88-35.75,55-68.8,54.92-33.2-.1-62.9-23.73-68.41-55.95C76.23,159,77,146,77,133.2c0-5.82,4.7-9.88,10.84-10.4C91.56,122.48,95.39,122.74,100,122.74Zm82-.41c0-7.41-.22-14.39.05-21.34.34-8.73-3.68-15-10.53-19.69-13.82-9.52-35.16-9.53-49.08-.17-5.16,3.47-9.57,8-10.08,14.2-.73,8.86-.18,17.83-.18,27ZM153,200.71c0-10-.11-19.41.05-28.85.07-4.36-2.21-5.25-5.94-5.31-4-.06-5.83,1.3-5.74,5.48.16,8.14,0,16.29.08,24.43,0,1.41.26,2.81.4,4.25Z"/></svg>