<?xml version="1.0" encoding="utf-8"?>
<!-- Generator: Adobe Illustrator 23.0.2, SVG Export Plug-In . SVG Version: 6.00 Build 0)  -->
<svg version="1.1" id="Layer_1" xmlns="http://www.w3.org/2000/svg" xmlns:xlink="http://www.w3.org/1999/xlink" x="0px" y="0px"
	 viewBox="0 0 288 288" style="enable-background:new 0 0 288 288;" xml:space="preserve">
<g>
	<path fill ="RGB(252,115,3)" d="M200.97,126.67c0.16,11.6-2.3,22.69-7.78,32.84c-2.24,4.14-1.22,6.23,1.69,9.08c12.56,12.31,25.04,24.71,37.33,37.29
		c10.72,10.98,5.85,28.28-8.79,31.67c-6.96,1.61-12.9-0.63-17.89-5.61c-12.44-12.44-24.99-24.77-37.24-37.38
		c-2.9-2.99-4.86-3.16-8.7-1.39c-28.16,13.01-55.36,10.83-79.62-8.58c-24.43-19.54-33.39-45.9-25.81-76.23
		c7.52-30.1,27.71-48.88,58.1-55.18C158.18,43.67,201.02,79.53,200.97,126.67z M173.01,126.78c-0.03-26.03-20.64-46.93-46.38-47.03
		c-25.75-0.1-46.85,20.87-46.89,46.59c-0.04,25.99,20.98,46.73,47.26,46.65C152.32,172.9,173.04,152.1,173.01,126.78z"/>
</g>
</svg>
