<svg id="Layer_1" data-name="Layer 1" xmlns="http://www.w3.org/2000/svg" viewBox="0 0 288 288"><title>Cart</title><path fill ="RGB(252,115,3)" d="M245,114c-3,14.65-6,29.28-8.93,43.95-1.91,9.68-5.22,12.56-15.33,12.57q-52.23,0-104.45,0h-6.88c1.33,5.88,2.31,11.36,4,16.62.29.93,3.43,1.34,5.26,1.34q47.47.12,94.95.06c2.5,0,5-.09,7.49.09,4.58.33,7.34,3,7.49,7.11.16,4.23-2.66,7.2-7.44,7.72a35.39,35.39,0,0,1-4,.13q-54,.24-107.94.46c-7.08,0-8.92-1.49-10.41-8.63-8.3-40.07-16.67-80.12-24.74-120.23-1-4.76-2.84-7.17-7.54-8.15a89.33,89.33,0,0,1-14.34-4.22c-2.62-1-4.8-3.19-7.18-4.84V53c3.89-5.69,5.27-6.18,12.1-4.24,7.51,2.13,15,4.42,22.53,6.36,4.42,1.14,6.79,3.73,7.64,8.11,1.46,7.5,2.91,15,4.72,22.43a5.42,5.42,0,0,0,3.65,3.28c8.42,1,16.88,1.64,25.33,2.39,36.11,3.24,72.2,6.62,108.33,9.59,7.84.64,13.35,3.29,15.7,11.08Z"/><path fill ="RGB(252,115,3)" d="M145.92,226.4c0,8.76-7.21,16.19-15.7,16.2a16.25,16.25,0,0,1,.08-32.49C138.79,210.18,145.94,217.63,145.92,226.4Z"/><path fill ="RGB(252,115,3)" d="M209,226.38a16.31,16.31,0,0,1-16.23,16.22c-8.51-.06-15.66-7.49-15.64-16.26s7.18-16.19,15.68-16.23A16.31,16.31,0,0,1,209,226.38Z"/></svg>