<svg id="Layer_1" data-name="Layer 1" xmlns="http://www.w3.org/2000/svg" viewBox="0 0 288 288"><title>Delivery</title><path fill ="RGB(252,115,3)" d="M103.25,70c0,10.17,0,19.79,0,29.41,0,6.66-.14,13.33.06,20,.17,5.64,3.7,9,8.74,8.78,4.79-.2,7.88-3.55,7.92-9.05.08-14.33,0-28.65,0-43V70h11.51c9.5,0,19,0,28.48,0,7,0,9.95,3,10,10.1.06,10,0,20,.07,30a8.61,8.61,0,0,0,.48,1.66c8.37,0,17,.51,25.57-.15,8.21-.64,13.73,2,18.28,9,5.77,8.93,12.83,17,18.92,25.75a18.75,18.75,0,0,1,3.28,9.55c.38,12.14.18,24.31.14,36.47,0,8.13-2.75,11.15-10.72,10.79-5-.24-7.75,1.21-10.6,5.68-9.89,15.44-32.88,14.44-42-1.62-1.77-3.13-3.6-4.08-6.95-4-9.16.19-18.32.17-27.48,0-2.71-.05-4,.83-5.35,3.24-4.63,8.64-12.14,13.29-21.87,13.33s-17.4-4.39-22-13.11c-1.53-2.93-3.35-3.52-6.28-3.45-6.83.17-13.66.11-20.49,0-6.55-.07-9.75-2.94-9.76-9.31q-.12-57.21,0-114.42c0-6,3.16-9.38,8.68-9.44C75.44,69.91,88.92,70,103.25,70Zm8.33,133.18a8.21,8.21,0,1,0-.1-16.41,8.21,8.21,0,1,0,.1,16.41Zm91.61-8.41a8.2,8.2,0,1,0-8,8.41A8,8,0,0,0,203.19,194.78Z"/></svg>